HIERARCHY
ROOT Hips
{
	OFFSET 0.000000 0.000000 0.000000
	CHANNELS 6 Xposition Yposition Zposition Zrotation Yrotation Xrotation 
	JOINT LHipJoint
	{
		OFFSET 0.000000 0.000000 0.000000
		CHANNELS 3 Zrotation Yrotation Xrotation
		JOINT LeftUpLeg
		{
			OFFSET 1.363060 -1.794630 0.839290
			CHANNELS 3 Zrotation Yrotation Xrotation
			JOINT LeftLeg
			{
				OFFSET 2.448110 -6.726130 0.000000
				CHANNELS 3 Zrotation Yrotation Xrotation
				JOINT LeftFoot
				{
					OFFSET 2.562200 -7.039590 0.000000
					CHANNELS 3 Zrotation Yrotation Xrotation
					JOINT LeftToeBase
					{
						OFFSET 0.157640 -0.433110 2.322550
						CHANNELS 3 Zrotation Yrotation Xrotation
						End Site
						{
							OFFSET 0.000000 0.000000 0.000000
						}
					}
				}
			}
		}
	}
	JOINT RHipJoint
	{
		OFFSET 0.000000 0.000000 0.000000
		CHANNELS 3 Zrotation Yrotation Xrotation
		JOINT RightUpLeg
		{
			OFFSET -1.305520 -1.794630 0.839290
			CHANNELS 3 Zrotation Yrotation Xrotation
			JOINT RightLeg
			{
				OFFSET -2.542530 -6.985550 0.000000
				CHANNELS 3 Zrotation Yrotation Xrotation
				JOINT RightFoot
				{
					OFFSET -2.568260 -7.056230 0.000000
					CHANNELS 3 Zrotation Yrotation Xrotation
					JOINT RightToeBase
					{
						OFFSET -0.164730 -0.452590 2.363150
						CHANNELS 3 Zrotation Yrotation Xrotation
						End Site
						{
							OFFSET 0.000000 0.000000 0.000000
						}
					}
				}
			}
		}
	}
	JOINT LowerBack
	{
		OFFSET 0.000000 0.000000 0.000000
		CHANNELS 3 Zrotation Yrotation Xrotation
		JOINT Spine
		{
			OFFSET 0.028270 2.035590 -0.193380
			CHANNELS 3 Zrotation Yrotation Xrotation
			JOINT Spine1
			{
				OFFSET 0.056720 2.048850 -0.042750
				CHANNELS 3 Zrotation Yrotation Xrotation
				JOINT Neck
				{
					OFFSET 0.000000 0.000000 0.000000
					CHANNELS 3 Zrotation Yrotation Xrotation
					JOINT Neck1
					{
						OFFSET -0.054170 1.746240 0.172020
						CHANNELS 3 Zrotation Yrotation Xrotation
						JOINT Head
						{
							OFFSET 0.104070 1.761360 -0.123970
							CHANNELS 3 Zrotation Yrotation Xrotation
							End Site
							{
								OFFSET 0.000000 0.000000 0.000000
							}
						}
					}
				}
				JOINT LeftShoulder
				{
					OFFSET 0.000000 0.000000 0.000000
					CHANNELS 3 Zrotation Yrotation Xrotation
					JOINT LeftArm
					{
						OFFSET 3.362410 1.200890 -0.311210
						CHANNELS 3 Zrotation Yrotation Xrotation
						JOINT LeftForeArm
						{
							OFFSET 4.983000 -0.000000 -0.000000
							CHANNELS 3 Zrotation Yrotation Xrotation
							JOINT LeftHand
							{
								OFFSET 3.483560 -0.000000 -0.000000
								CHANNELS 3 Zrotation Yrotation Xrotation
								JOINT LeftFingerBase
								{
									OFFSET 0.000000 0.000000 0.000000
									CHANNELS 3 Zrotation Yrotation Xrotation
									JOINT LeftHandIndex1
									{
										OFFSET 0.715260 -0.000000 -0.000000
										CHANNELS 3 Zrotation Yrotation Xrotation
										End Site
										{
											OFFSET 0.000000 0.000000 0.000000
										}
									}
								}
								JOINT LThumb
								{
									OFFSET 0.000000 0.000000 0.000000
									CHANNELS 3 Zrotation Yrotation Xrotation
									End Site
									{
										OFFSET 0.000000 0.000000 0.000000
									}
								}
							}
						}
					}
				}
				JOINT RightShoulder
				{
					OFFSET 0.000000 0.000000 0.000000
					CHANNELS 3 Zrotation Yrotation Xrotation
					JOINT RightArm
					{
						OFFSET -3.136600 1.374050 -0.404650
						CHANNELS 3 Zrotation Yrotation Xrotation
						JOINT RightForeArm
						{
							OFFSET -5.241900 -0.000000 -0.000000
							CHANNELS 3 Zrotation Yrotation Xrotation
							JOINT RightHand
							{
								OFFSET -3.444170 -0.000000 -0.000000
								CHANNELS 3 Zrotation Yrotation Xrotation
								JOINT RightFingerBase
								{
									OFFSET 0.000000 0.000000 0.000000
									CHANNELS 3 Zrotation Yrotation Xrotation
									JOINT RightHandIndex1
									{
										OFFSET -0.622530 -0.000000 -0.000000
										CHANNELS 3 Zrotation Yrotation Xrotation
										End Site
										{
											OFFSET 0.000000 0.000000 0.000000
										}
									}
								}
								JOINT RThumb
								{
									OFFSET 0.000000 0.000000 0.000000
									CHANNELS 3 Zrotation Yrotation Xrotation
									End Site
									{
										OFFSET 0.000000 0.000000 0.000000
									}
								}
							}
						}
					}
				}
			}
		}
	}
}
MOTION
Frames: 4
Frame Time: 0.008333
4.123014 17.341371 0.976508 9.836053 -42.334065 12.715812 -9.474551 -0.430398 5.512510 -4.914563 -21.632846 -23.570903 -2.610691 -1.274763 -4.126182 -0.393899 -0.051934 13.724758 0.580100 -0.000000 -40.104100 10.442318 -0.448931 -5.027398 3.436320 -28.103198 -10.219767 1.384797 1.087282 -4.325063 -3.792004 -27.851186 2.051915 -8.218300 -0.000000 -55.249000 -1.784234 2.508601 1.568041 0.620070 2.731623 -2.340783 2.434688 2.612352 0.246365 -10.409270 -3.987865 -3.537163 0.252415 -0.050237 1.063071 0.000000 0.000000 0.000000 0.322682 6.903360 -3.446247 -85.770004 -6.528359 32.252725 179.765922 -61.053928 -179.964485 -3.436786 3.351496 -0.101278 0.332657 0.334418 0.000000 0.000000 0.000000 0.000000 0.000000 0.000000 0.000000 -22.468901 1.003143 4.055700 -19.217548 24.962306 -96.625757 -3.255671 -2.543544 -0.163799 -35.017755 -0.435742 0.052117 0.961512 -0.273646 0.000000 0.000000 0.000000 0.000000 0.000000 0.000000 0.000000 
4.117724 17.346263 0.994931 9.716681 -42.129172 13.020124 -9.496755 -0.410318 5.549875 -4.812944 -21.609507 -23.679303 -2.612914 -1.280867 -4.437265 -0.424258 -0.364285 13.967256 0.469300 -0.000001 -39.998100 10.408996 -0.449286 -5.001613 3.643654 -27.997419 -10.313739 1.375265 1.123193 -4.451769 -3.899513 -28.205825 2.227880 -8.365300 0.000000 -55.042100 -1.662292 2.379256 1.487300 0.644240 2.595663 -2.370332 2.387265 2.475833 0.224138 -10.328844 -3.919197 -3.486545 0.285855 -0.048747 1.075641 0.000000 0.000000 0.000000 -0.034258 6.786729 -3.434581 -85.759556 -5.455707 31.273255 179.733796 -60.658722 -179.964260 -3.425035 3.337881 -0.100565 0.337609 0.335398 0.000000 0.000000 0.000000 0.000000 0.000000 0.000000 0.000000 -22.760840 1.267477 4.032977 -17.619332 25.147905 -92.595663 -2.575221 -1.034106 -0.127430 -25.413643 -3.361869 0.734146 0.759435 -0.193041 0.000000 0.000000 0.000000 0.000000 0.000000 0.000000 0.000000 
4.114146 17.351658 1.013240 9.567023 -42.019173 13.326548 -9.516207 -0.383661 5.566520 -4.730867 -21.495632 -23.776630 -2.614146 -1.286087 -4.720611 -0.453729 -0.681984 14.179004 0.354000 -0.000001 -39.881900 10.383497 -0.451134 -4.956344 3.853510 -27.791689 -10.380260 1.357278 1.164727 -4.618520 -4.033652 -28.577613 2.441126 -8.514200 0.000000 -54.811599 -1.592216 2.231137 1.419836 0.648293 2.444220 -2.407131 2.284689 2.327339 0.147275 -10.006412 -3.544365 -3.347012 0.260688 -0.052603 1.110944 0.000000 0.000000 0.000000 -0.320817 6.640553 -3.379371 -85.772264 -4.322073 30.247906 179.729498 -60.230886 -179.963461 -3.498386 3.277886 -0.100460 0.344959 0.340190 0.000000 0.000000 0.000000 0.000000 0.000000 0.000000 0.000000 -22.646425 1.730954 3.969178 -16.114516 25.164860 -86.547640 -1.835230 1.158358 -0.088544 -16.243816 -5.142535 0.733915 0.510289 -0.151905 0.000000 0.000000 0.000000 0.000000 0.000000 0.000000 0.000000 
4.112459 17.356954 1.030432 9.396730 -42.007346 13.622261 -9.529912 -0.353720 5.565131 -4.656150 -21.333812 -23.842849 -2.611704 -1.291309 -4.994307 -0.477151 -0.949529 14.360445 0.254600 -0.000000 -39.776200 10.366634 -0.451237 -4.899772 4.051109 -27.502722 -10.409885 1.332251 1.209666 -4.821527 -4.191701 -28.945313 2.680502 -8.652400 0.000000 -54.577800 -1.580831 2.067015 1.377086 0.638302 2.280627 -2.440024 2.161670 2.168220 0.056576 -9.506749 -3.026907 -3.153804 0.203126 -0.059414 1.159162 0.000000 0.000000 0.000000 -0.571993 6.502126 -3.294137 -85.803748 -3.202662 29.211921 179.750341 -59.799140 -179.962301 -3.627730 3.182085 -0.100456 0.353513 0.347874 0.000000 0.000000 0.000000 0.000000 0.000000 0.000000 0.000000 -22.261238 2.247773 3.896201 -14.696280 25.053176 -79.536816 -1.141502 4.071050 -0.050226 -8.377001 -5.270801 0.385445 0.272193 -0.170471 -0.000000 0.000000 0.000000 0.000000 0.000000 0.000000 0.000000 
